<svg width="24" height="24" viewBox="0 0 24 24" fill="none" xmlns="http://www.w3.org/2000/svg">
<g clip-path="url(#clip0_293_1343)">
<path d="M13.0002 2L13.0182 2.001L13.0343 2.002L13.1172 2.007L13.1283 2.009H13.1392L13.1772 2.018L13.2292 2.026L13.2452 2.032L13.2562 2.033L13.2852 2.044L13.3372 2.058L13.3562 2.067L13.3713 2.071L13.3993 2.085L13.4392 2.102L13.4602 2.114L13.4823 2.124L13.5052 2.139L13.5363 2.156L13.5702 2.18L13.5883 2.191L13.6012 2.203L13.6252 2.22L13.6632 2.254L13.6853 2.271L13.6932 2.281L13.7072 2.293L13.7432 2.334L13.7692 2.361L13.7752 2.37C13.8952 2.517 13.9712 2.692 13.9932 2.883L13.9943 2.895L13.9963 2.936L14.0002 3V9H19.0002C19.1755 8.99996 19.3477 9.04598 19.4996 9.13345C19.6515 9.22092 19.7777 9.34677 19.8656 9.49839C19.9535 9.65001 20 9.82208 20.0005 9.99734C20.001 10.1726 19.9554 10.3449 19.8682 10.497L19.8083 10.588L11.8082 21.588C11.2402 22.371 10.0002 21.968 10.0002 21V15H5.00025C4.82499 15 4.65279 14.954 4.50091 14.8666C4.34904 14.7791 4.22282 14.6532 4.1349 14.5016C4.04699 14.35 4.00047 14.1779 4 14.0027C3.99954 13.8274 4.04514 13.6551 4.13225 13.503L4.19225 13.412L12.1923 2.412L12.2022 2.399L12.2203 2.375L12.2533 2.337L12.2712 2.315L12.2802 2.307L12.2933 2.293L12.3333 2.257L12.3612 2.231L12.3693 2.225C12.4865 2.12908 12.6239 2.06104 12.7712 2.026L12.7822 2.025L12.8092 2.02L12.8833 2.007L12.8942 2.006L12.9353 2.004L13.0002 2Z" fill="#16A34A"/>
</g>
<defs>
<clipPath id="clip0_293_1343">
<rect width="24" height="24" fill="white"/>
</clipPath>
</defs>
</svg>
