<svg width="24" height="24" viewBox="0 0 24 24" fill="none" xmlns="http://www.w3.org/2000/svg">
<path fill-rule="evenodd" clip-rule="evenodd" d="M5 5.5C4.60218 5.5 4.22064 5.65804 3.93934 5.93934C3.65804 6.22064 3.5 6.60218 3.5 7V17C3.5 17.3978 3.65804 17.7794 3.93934 18.0607C4.22064 18.342 4.60218 18.5 5 18.5H19C19.3978 18.5 19.7794 18.342 20.0607 18.0607C20.342 17.7794 20.5 17.3978 20.5 17V7C20.5 6.60218 20.342 6.22064 20.0607 5.93934C19.7794 5.65804 19.3978 5.5 19 5.5H5ZM3.23223 5.23223C3.70107 4.76339 4.33696 4.5 5 4.5H19C19.663 4.5 20.2989 4.76339 20.7678 5.23223C21.2366 5.70107 21.5 6.33696 21.5 7V17C21.5 17.663 21.2366 18.2989 20.7678 18.7678C20.2989 19.2366 19.663 19.5 19 19.5H5C4.33696 19.5 3.70107 19.2366 3.23223 18.7678C2.76339 18.2989 2.5 17.663 2.5 17V7C2.5 6.33696 2.76339 5.70107 3.23223 5.23223Z" fill="#16A34A"/>
<path fill-rule="evenodd" clip-rule="evenodd" d="M2.58403 6.7227C2.7372 6.49294 3.04764 6.43085 3.2774 6.58403L12.0001 12.3991L20.7227 6.58403C20.9525 6.43085 21.2629 6.49294 21.4161 6.7227C21.5693 6.95247 21.5072 7.2629 21.2774 7.41608L12.2774 13.4161C12.1095 13.528 11.8907 13.528 11.7227 13.4161L2.7227 7.41608C2.49294 7.2629 2.43085 6.95247 2.58403 6.7227Z" fill="#16A34A"/>
</svg>
