<svg width="24" height="24" viewBox="0 0 24 24" fill="none" xmlns="http://www.w3.org/2000/svg">
<path fill-rule="evenodd" clip-rule="evenodd" d="M5 4.5C4.60218 4.5 4.22064 4.65804 3.93934 4.93934C3.66139 5.21729 3.50378 5.5931 3.50007 5.98579C3.73329 9.75864 5.33722 13.3165 8.01038 15.9896C10.6835 18.6628 14.2414 20.2667 18.0142 20.4999C18.4069 20.4962 18.7827 20.3386 19.0607 20.0607C19.342 19.7794 19.5 19.3978 19.5 19V15.3385L15.2097 13.6224L13.9287 15.7572C13.7949 15.9804 13.5122 16.0635 13.2788 15.9484C11.0086 14.8288 9.17121 12.9914 8.05157 10.7212C7.93647 10.4878 8.01962 10.2051 8.24275 10.0713L10.3776 8.79033L8.66148 4.5H5ZM3.23223 4.23223C3.70107 3.76339 4.33696 3.5 5 3.5H9C9.20445 3.5 9.38831 3.62448 9.46424 3.8143L11.4642 8.8143C11.5554 9.04216 11.4677 9.30248 11.2572 9.42875L9.16076 10.6866C10.1217 12.4375 11.5625 13.8783 13.3134 14.8392L14.5713 12.7428C14.6975 12.5323 14.9578 12.4446 15.1857 12.5358L20.1857 14.5358C20.3755 14.6117 20.5 14.7955 20.5 15V19C20.5 19.663 20.2366 20.2989 19.7678 20.7678C19.2989 21.2366 18.663 21.5 18 21.5C17.9899 21.5 17.9798 21.4997 17.9697 21.4991C13.947 21.2546 10.153 19.5464 7.30328 16.6967C4.4536 13.847 2.74538 10.053 2.50092 6.03033C2.50031 6.02023 2.5 6.01012 2.5 6C2.5 5.33696 2.76339 4.70107 3.23223 4.23223Z" fill="#16A34A"/>
</svg>
